<?xml version="1.0" encoding="utf-8"?>
<!-- Generator: Adobe Illustrator 16.0.0, SVG Export Plug-In . SVG Version: 6.00 Build 0)  -->
<!DOCTYPE svg PUBLIC "-//W3C//DTD SVG 1.1//EN" "http://www.w3.org/Graphics/SVG/1.1/DTD/svg11.dtd">
<svg version="1.1" id="Layer_1" xmlns="http://www.w3.org/2000/svg" xmlns:xlink="http://www.w3.org/1999/xlink" x="0px" y="0px"
	 width="176.555px" height="200px" viewBox="0 0 176.555 200" enable-background="new 0 0 176.555 200" xml:space="preserve">
<g id="Layer_x0020_1">
	<g>
		<path id="_251374776" fill="#33EB74" d="M108.998,127.982c-7.162-7.16-11.59-17.057-11.59-27.981
			c0-10.929,4.428-20.822,11.59-27.985c7.162-7.161,17.058-11.589,27.984-11.589l0,0c10.926,0,20.817,4.428,27.981,11.589
			c7.16,7.163,11.591,17.056,11.591,27.984v0.001c0,10.926-4.431,20.817-11.591,27.981c-7.164,7.16-17.057,11.59-27.981,11.59
			C126.054,139.572,116.16,135.143,108.998,127.982L108.998,127.982z"/>
		<path id="_251375088" fill="#33EB74" d="M11.591,127.982C4.43,120.822,0,110.927,0,100.001C0,89.072,4.43,79.179,11.591,72.016
			c7.161-7.161,17.056-11.589,27.983-11.589l0,0c10.926,0,20.821,4.428,27.98,11.589C74.716,79.179,79.146,89.072,79.146,100v0.001
			c0,10.926-4.43,20.817-11.591,27.981c-7.162,7.16-17.056,11.59-27.98,11.59C28.646,139.572,18.752,135.143,11.591,127.982
			L11.591,127.982z"/>
	</g>
</g>
</svg>
