<?xml version="1.0" encoding="utf-8"?>
<!-- Generator: Adobe Illustrator 16.0.0, SVG Export Plug-In . SVG Version: 6.00 Build 0)  -->
<!DOCTYPE svg PUBLIC "-//W3C//DTD SVG 1.1//EN" "http://www.w3.org/Graphics/SVG/1.1/DTD/svg11.dtd">
<svg version="1.1" id="Layer_1" xmlns="http://www.w3.org/2000/svg" xmlns:xlink="http://www.w3.org/1999/xlink" x="0px" y="0px"
	 width="200px" height="200px" viewBox="0 0 200 200" enable-background="new 0 0 200 200" xml:space="preserve">
<g>
	<path fill="#33EB74" d="M100,18.043c26.693,0,29.855,0.103,40.396,0.583c9.746,0.444,15.039,2.073,18.562,3.442
		c4.666,1.813,7.996,3.979,11.494,7.478c3.498,3.5,5.664,6.828,7.479,11.494c1.368,3.523,2.998,8.816,3.44,18.563
		c0.479,10.541,0.584,13.703,0.584,40.396c0,26.692-0.104,29.854-0.584,40.397c-0.442,9.746-2.072,15.039-3.44,18.561
		c-1.814,4.666-3.98,7.996-7.479,11.494c-3.5,3.498-6.828,5.666-11.494,7.48c-3.522,1.368-8.815,2.995-18.562,3.438
		c-10.541,0.481-13.701,0.584-40.396,0.584c-26.695,0-29.856-0.103-40.396-0.584c-9.746-0.443-15.039-2.07-18.562-3.438
		c-4.666-1.814-7.996-3.98-11.494-7.48c-3.498-3.498-5.665-6.828-7.478-11.494c-1.369-3.521-2.998-8.814-3.442-18.561
		c-0.481-10.541-0.583-13.705-0.583-40.397c0-26.692,0.102-29.854,0.583-40.396c0.444-9.747,2.073-15.04,3.442-18.563
		c1.812-4.666,3.979-7.996,7.478-11.494c3.498-3.497,6.828-5.663,11.494-7.478c3.523-1.369,8.816-2.998,18.562-3.442
		C70.147,18.145,73.307,18.043,100,18.043 M100,0.031c-27.15,0-30.555,0.115-41.217,0.602C48.143,1.118,40.875,2.809,34.517,5.28
		c-6.573,2.554-12.148,5.973-17.706,11.53c-5.559,5.557-8.977,11.133-11.53,17.706c-2.473,6.358-4.162,13.626-4.647,24.267
		C0.148,69.446,0.032,72.85,0.032,100c0,27.15,0.115,30.555,0.602,41.216c0.485,10.642,2.175,17.908,4.647,24.269
		c2.554,6.574,5.973,12.146,11.53,17.707c5.558,5.557,11.133,8.975,17.707,11.529c6.357,2.471,13.625,4.161,24.266,4.646
		c10.663,0.485,14.066,0.602,41.217,0.602c27.149,0,30.554-0.114,41.216-0.602c10.641-0.484,17.908-2.177,24.266-4.646
		c6.574-2.556,12.15-5.974,17.707-11.529c5.56-5.56,8.978-11.133,11.531-17.707c2.471-6.359,4.16-13.627,4.646-24.269
		c0.484-10.661,0.602-14.065,0.602-41.216c0-27.149-0.115-30.555-0.602-41.218c-0.486-10.641-2.176-17.907-4.646-24.267
		c-2.555-6.573-5.973-12.148-11.531-17.706c-5.557-5.559-11.133-8.978-17.707-11.53c-6.356-2.472-13.625-4.162-24.266-4.647
		C130.555,0.146,127.15,0.031,100,0.031z"/>
	<path fill="#33EB74" d="M99.969,48.684c-28.352,0-51.335,22.982-51.335,51.336c0,28.351,22.984,51.335,51.335,51.335
		s51.335-22.984,51.335-51.335C151.305,71.667,128.32,48.684,99.969,48.684 M99.969,133.342c-18.403,0-33.322-14.918-33.322-33.322
		s14.919-33.324,33.322-33.324c18.404,0,33.322,14.919,33.322,33.324C133.291,118.424,118.373,133.342,99.969,133.342z"/>
	<path fill="#33EB74" d="M165.328,46.656c0,6.625-5.371,11.996-11.996,11.996s-11.996-5.371-11.996-11.996
		s5.371-11.997,11.996-11.997S165.328,40.031,165.328,46.656"/>
</g>
</svg>
