<?xml version="1.0" encoding="utf-8"?>
<!-- Generator: Adobe Illustrator 16.0.0, SVG Export Plug-In . SVG Version: 6.00 Build 0)  -->
<!DOCTYPE svg PUBLIC "-//W3C//DTD SVG 1.1//EN" "http://www.w3.org/Graphics/SVG/1.1/DTD/svg11.dtd">
<svg version="1.1" id="Layer_1" xmlns="http://www.w3.org/2000/svg" xmlns:xlink="http://www.w3.org/1999/xlink" x="0px" y="0px"
	 width="375.902px" height="32.681px" viewBox="0 0 375.902 32.681" enable-background="new 0 0 375.902 32.681"
	 xml:space="preserve">
<path fill-rule="evenodd" clip-rule="evenodd" fill="#3AAA15" d="M0,0.375h6.564v26.116h14.441v5.768H0V0.375L0,0.375z
	 M42.387,23.162l-2.297-5.532c-0.25-0.562-0.484-1.173-0.703-1.829c-0.22-0.656-0.422-1.281-0.609-1.875
	c-0.219-0.657-0.423-1.329-0.61-2.017c-0.219,0.688-0.421,1.359-0.609,2.017c-0.188,0.594-0.383,1.219-0.586,1.875
	c-0.204,0.656-0.43,1.267-0.68,1.829l-2.298,5.532H42.387L42.387,23.162z M37.979,0.094h0.563l14.582,32.165h-6.892l-1.5-3.61H31.79
	l-1.5,3.61h-6.331L37.979,0.094L37.979,0.094z M83.133,32.681c-2.282,0-4.423-0.414-6.423-1.242c-2-0.829-3.735-1.97-5.205-3.424
	c-1.469-1.452-2.633-3.18-3.493-5.181c-0.86-2-1.29-4.173-1.29-6.518c0-2.344,0.43-4.516,1.29-6.517
	c0.859-2.001,2.024-3.729,3.493-5.182c1.47-1.454,3.205-2.586,5.205-3.399C78.71,0.406,80.851,0,83.133,0
	c2.907,0,5.4,0.523,7.479,1.57s3.837,2.696,5.275,4.947l-5.017,3.563c-0.75-1.22-1.766-2.22-3.048-3.001
	c-1.281-0.781-2.845-1.173-4.689-1.173c-1.438,0-2.751,0.266-3.938,0.798c-1.188,0.531-2.203,1.258-3.048,2.18
	c-0.844,0.922-1.5,2.017-1.969,3.282c-0.469,1.266-0.704,2.649-0.704,4.149c0,1.501,0.235,2.892,0.704,4.174
	c0.469,1.281,1.125,2.391,1.969,3.329c0.845,0.938,1.86,1.672,3.048,2.203c1.188,0.531,2.501,0.798,3.938,0.798
	c2.063,0,3.72-0.438,4.97-1.313c1.25-0.875,2.329-2.001,3.236-3.376l5.11,3.517c-1.407,2.157-3.204,3.868-5.393,5.134
	C88.869,32.048,86.228,32.681,83.133,32.681L83.133,32.681z M116.002,23.162l-2.298-5.532c-0.25-0.562-0.484-1.173-0.703-1.829
	c-0.219-0.656-0.423-1.281-0.61-1.875c-0.219-0.657-0.422-1.329-0.61-2.017c-0.218,0.688-0.422,1.359-0.609,2.017
	c-0.188,0.594-0.383,1.219-0.586,1.875s-0.43,1.267-0.68,1.829l-2.297,5.532H116.002L116.002,23.162z M111.594,0.094h0.562
	l14.582,32.165h-6.893l-1.5-3.61h-12.942l-1.5,3.61h-6.33L111.594,0.094L111.594,0.094z M140.008,32.681
	c-1.532,0-2.923-0.172-4.174-0.508c-1.25-0.344-2.375-0.812-3.375-1.398c-1.001-0.587-1.868-1.298-2.603-2.118
	c-0.734-0.821-1.337-1.695-1.805-2.634l5.345-3.094c0.719,1.155,1.57,2.109,2.555,2.859s2.29,1.125,3.916,1.125
	c1.375,0,2.462-0.305,3.258-0.914c0.798-0.609,1.196-1.391,1.196-2.328c0-1.126-0.422-1.97-1.267-2.532
	c-0.844-0.562-2.016-1.18-3.516-1.837l-1.642-0.703c-1.188-0.5-2.267-1.048-3.235-1.642s-1.797-1.289-2.484-2.07
	c-0.688-0.781-1.22-1.673-1.595-2.673c-0.375-1.008-0.562-2.18-0.562-3.524c0-1.219,0.227-2.367,0.68-3.43
	c0.453-1.063,1.095-1.985,1.923-2.768c0.828-0.789,1.836-1.398,3.024-1.836C136.834,0.219,138.164,0,139.633,0
	c2.094,0,3.899,0.398,5.415,1.203c1.517,0.805,2.821,2.173,3.915,4.096l-5.11,3.281c-0.562-1-1.173-1.719-1.829-2.157
	c-0.656-0.438-1.453-0.656-2.391-0.656c-0.97,0-1.735,0.266-2.298,0.798c-0.562,0.531-0.844,1.203-0.844,2.008
	c0,1.001,0.32,1.759,0.961,2.274s1.665,1.086,3.071,1.703l1.641,0.703c1.406,0.595,2.649,1.212,3.728,1.853
	c1.079,0.641,1.985,1.36,2.721,2.149c0.734,0.797,1.297,1.704,1.688,2.719c0.391,1.017,0.585,2.205,0.585,3.58
	c0,1.469-0.272,2.766-0.82,3.906c-0.546,1.142-1.305,2.103-2.273,2.885c-0.969,0.773-2.118,1.359-3.446,1.75
	C143.016,32.485,141.571,32.681,140.008,32.681L140.008,32.681z M156.137,0.375h6.564v31.884h-6.564V0.375L156.137,0.375z
	 M176.721,6.143h-9.096V0.375h24.756v5.768h-9.097v26.116h-6.563V6.143L176.721,6.143z M208.84,23.162l-2.298-5.532
	c-0.251-0.562-0.484-1.173-0.703-1.829c-0.22-0.656-0.423-1.281-0.61-1.875c-0.219-0.657-0.422-1.329-0.609-2.017
	c-0.219,0.688-0.422,1.359-0.609,2.017c-0.188,0.594-0.384,1.219-0.586,1.875c-0.203,0.656-0.431,1.267-0.681,1.829l-2.297,5.532
	H208.84L208.84,23.162z M204.432,0.094l-14.02,32.165h6.33l1.5-3.61h12.941l1.5,3.61h6.893L204.995,0.094H204.432L204.432,0.094z
	 M231.909,0.375h7.033l5.486,12.284c0.312,0.688,0.609,1.454,0.891,2.298s0.547,1.626,0.797,2.344
	c0.281,0.845,0.547,1.704,0.798,2.58c0.219-0.876,0.468-1.735,0.75-2.58c0.25-0.718,0.516-1.492,0.796-2.32
	c0.282-0.828,0.579-1.602,0.892-2.321l5.346-12.284h6.376L247.1,32.54h-0.655L231.909,0.375L231.909,0.375z M265.387,0.375h21.1
	v5.768h-14.536V16.27h12.802v5.627h-12.802v4.595h15.192v5.768h-21.756V0.375L265.387,0.375z M301.866,18.614
	c2.688,0,4.643-0.469,5.861-1.406c1.219-0.938,1.828-2.532,1.828-4.783c0-2.25-0.617-3.86-1.852-4.829s-3.181-1.453-5.838-1.453
	h-2.063v12.472H301.866L301.866,18.614z M316.776,32.259h-7.596l-5.251-8.065c-0.625,0.095-1.251,0.142-1.876,0.142h-2.251v7.924
	h-6.564V0.375h8.815c4.47,0,7.963,1.032,10.479,3.095s3.774,5.048,3.774,8.955c0,2.501-0.531,4.549-1.594,6.143
	s-2.579,2.844-4.548,3.751L316.776,32.259L316.776,32.259z M331.5,26.491c1.781,0,3.32-0.25,4.618-0.75
	c1.297-0.5,2.368-1.204,3.212-2.109c0.844-0.907,1.469-1.978,1.875-3.213c0.406-1.234,0.61-2.602,0.61-4.103
	c0-1.5-0.204-2.868-0.61-4.103s-1.031-2.305-1.875-3.212c-0.844-0.906-1.915-1.609-3.212-2.109c-1.298-0.501-2.837-0.75-4.618-0.75
	h-2.907v20.349H331.5L331.5,26.491z M322.028,0.375h9.8c2.438,0,4.688,0.391,6.752,1.172c2.062,0.782,3.837,1.875,5.321,3.282
	c1.485,1.407,2.642,3.087,3.47,5.041c0.829,1.953,1.243,4.103,1.243,6.446c0,2.345-0.414,4.494-1.243,6.447
	c-0.828,1.954-1.984,3.634-3.47,5.041c-1.484,1.406-3.251,2.5-5.299,3.282c-2.047,0.781-4.305,1.172-6.774,1.172h-9.8V0.375
	L322.028,0.375z M354.146,0.375h21.099v5.768H360.71V16.27h12.8v5.627h-12.8v4.595h15.191v5.768h-21.756V0.375z"/>
</svg>
