<?xml version="1.0" encoding="utf-8"?>
<!-- Generator: Adobe Illustrator 16.0.0, SVG Export Plug-In . SVG Version: 6.00 Build 0)  -->
<!DOCTYPE svg PUBLIC "-//W3C//DTD SVG 1.1//EN" "http://www.w3.org/Graphics/SVG/1.1/DTD/svg11.dtd">
<svg version="1.1" id="Layer_1" xmlns="http://www.w3.org/2000/svg" xmlns:xlink="http://www.w3.org/1999/xlink" x="0px" y="0px"
	 width="50px" height="50px" viewBox="0 0 50 50" enable-background="new 0 0 50 50" xml:space="preserve">
<g>
	<polygon fill="#33EB74" points="46.867,15.073 46.867,50 36.859,49.99 36.859,37.185 37.439,37.166 40.209,37.155 29.963,29.949 
		19.308,37.125 23.426,37.125 23.426,48.431 14.798,48.431 14.798,47.241 22.236,47.241 22.236,38.325 18.118,38.325 18.127,36.406 
		29.643,28.739 29.973,28.519 30.303,28.739 41.898,36.976 41.889,38.325 38.061,38.334 38.061,48.812 45.677,48.812 45.677,16.253 
		30.712,16.253 30.723,26.739 29.532,26.739 29.523,15.653 29.523,15.063 30.123,15.063 46.266,15.073 	"/>
	<path fill="#33EB74" d="M25.805,39.313v7.97h7.697v-7.97H25.805z M32.302,46.09h-5.288v-5.587h5.288V46.09z"/>
	<path fill="#33EB74" d="M33.352,21.491v5.287h9.348v-5.287H33.352z M41.499,25.589h-6.957v-2.908h6.957V25.589z"/>
	<path fill="#33EB74" d="M26.895,18.083c-0.24-0.65-0.871-1.719-1.699-3.019h-0.01c-1.142-1.749-2.68-3.929-4.219-6.118
		c-2.219-3.139-4.438-6.278-5.429-8.086L15.068,0l-0.449,0.87c-1.6,3.018-4.618,8.097-7.077,12.236
		c-1.32,2.208-2.489,4.168-3.119,5.278c-1.129,1.969-1.5,4.108-1.179,5.969c0.22,1.258,0.75,2.388,1.568,3.258
		c0.83,0.88,1.95,1.5,3.338,1.729c1.78,0.292,4.01-0.08,6.627-1.389l0.021,19.292v0.961l1.01-0.021v-0.939l0.021-19.062
		c1.75,0.932,3.479,1.291,5.037,1.19c1.529-0.101,2.908-0.642,4.019-1.521c1.1-0.879,1.928-2.108,2.369-3.568
		C27.783,22.51,27.732,20.382,26.895,18.083z M26.245,23.979c-0.371,1.26-1.08,2.299-2.021,3.049c-0.939,0.75-2.108,1.21-3.418,1.3
		c-1.53,0.089-3.24-0.312-4.978-1.349l-0.012-3.379l6.388-5.278l-0.681-0.799l-5.708,4.718v-4.568l3.101-2.599l-0.68-0.799
		l-2.42,2.03v-3.55l-1.049-0.01v3.678l-2.539-2.198l-0.68,0.789l3.229,2.799v4.627l-5.428-4.367l-0.62,0.849l6.048,4.908v2.938
		c-2.617,1.398-4.777,1.81-6.458,1.541c-1.148-0.19-2.068-0.701-2.749-1.41c-0.679-0.729-1.118-1.67-1.299-2.729
		c-0.279-1.628,0.051-3.519,1.061-5.268c0.76-1.33,1.858-3.179,3.099-5.268c2.27-3.809,5.008-8.408,6.667-11.457
		c1.15,1.91,3.079,4.639,5.008,7.367c2.649,3.75,5.288,7.478,5.798,8.897C26.664,20.511,26.714,22.411,26.245,23.979z"/>
</g>
</svg>
