<?xml version="1.0" encoding="utf-8"?>
<!-- Generator: Adobe Illustrator 16.0.0, SVG Export Plug-In . SVG Version: 6.00 Build 0)  -->
<!DOCTYPE svg PUBLIC "-//W3C//DTD SVG 1.1//EN" "http://www.w3.org/Graphics/SVG/1.1/DTD/svg11.dtd">
<svg version="1.1" id="Layer_1" xmlns="http://www.w3.org/2000/svg" xmlns:xlink="http://www.w3.org/1999/xlink" x="0px" y="0px"
	 width="70px" height="70px" viewBox="-9.875 -10.125 70 70" enable-background="new -9.875 -10.125 70 70" xml:space="preserve">
<path fill="none" stroke="#3AAA15" stroke-width="2" stroke-miterlimit="10" d="M57.75,24.88c0,18.01-14.61,32.62-32.63,32.62
	C7.11,57.5-7.5,42.89-7.5,24.88C-7.5,6.86,7.11-7.75,25.12-7.75C43.14-7.75,57.75,6.86,57.75,24.88z"/>
<g>
	<rect x="26" y="37.38" fill-rule="evenodd" clip-rule="evenodd" fill="#F4FFD2" width="5.29" height="5.59"/>
	<rect x="26" y="37.38" fill-rule="evenodd" clip-rule="evenodd" fill="#F4FFD2" width="5.29" height="5.59"/>
	<path fill-rule="evenodd" clip-rule="evenodd" fill="#F4FFD2" d="M25.23,20.85c-0.37,1.26-1.08,2.3-2.02,3.05s-2.11,1.21-3.42,1.3
		c-1.53,0.09-3.24-0.31-4.98-1.35l-0.01-3.38l6.39-5.28l-0.68-0.8l-5.71,4.72v-4.57l3.1-2.6l-0.68-0.8l-2.42,2.03V9.62l-1.05-0.01
		v3.68l-2.54-2.2l-0.68,0.79l3.23,2.8v4.63l-5.43-4.37l-0.62,0.85l6.05,4.91v2.94c-2.62,1.4-4.78,1.81-6.46,1.54
		c-1.15-0.19-2.07-0.7-2.75-1.41c-0.68-0.73-1.12-1.67-1.3-2.73c-0.28-1.63,0.05-3.52,1.06-5.27c0.76-1.33,1.86-3.18,3.1-5.27
		c2.27-3.81,5.01-8.41,6.67-11.46c1.15,1.91,3.08,4.64,5.01,7.37c2.65,3.75,5.29,7.48,5.8,8.9C25.65,17.38,25.7,19.28,25.23,20.85z"
		/>
	<path fill-rule="evenodd" clip-rule="evenodd" fill="#F4FFD2" d="M25.23,20.85c-0.37,1.26-1.08,2.3-2.02,3.05s-2.11,1.21-3.42,1.3
		c-1.53,0.09-3.24-0.31-4.98-1.35l-0.01-3.38l6.39-5.28l-0.68-0.8l-5.71,4.72v-4.57l3.1-2.6l-0.68-0.8l-2.42,2.03V9.62l-1.05-0.01
		v3.68l-2.54-2.2l-0.68,0.79l3.23,2.8v4.63l-5.43-4.37l-0.62,0.85l6.05,4.91v2.94c-2.62,1.4-4.78,1.81-6.46,1.54
		c-1.15-0.19-2.07-0.7-2.75-1.41c-0.68-0.73-1.12-1.67-1.3-2.73c-0.28-1.63,0.05-3.52,1.06-5.27c0.76-1.33,1.86-3.18,3.1-5.27
		c2.27-3.81,5.01-8.41,6.67-11.46c1.15,1.91,3.08,4.64,5.01,7.37c2.65,3.75,5.29,7.48,5.8,8.9C25.65,17.38,25.7,19.28,25.23,20.85z"
		/>
</g>
<path fill="#F4FFD2" d="M23.87,24.72c-1.11,0.879-2.49,1.419-4.02,1.52c-1.56,0.1-3.29-0.26-5.04-1.19l-0.02,19.07h6.43V35.2H17.1
	l0.01-1.92l11.52-7.67l0.33-0.22l0.33,0.22l11.6,8.239L40.88,35.2l-3.83,0.01v10.48h7.62V13.12H29.7l0.01,10.49h-1.19l0,0l0,0
	 M41.69,23.65H32.34v-5.29h9.351V23.65z"/>
<path fill="#F4FFD2" d="M23.87,24.72c-1.11,0.879-2.49,1.419-4.02,1.52c-1.56,0.1-3.29-0.26-5.04-1.19l-0.02,19.07h6.43V35.2H17.1
	l0.01-1.92l11.52-7.67l0.33-0.22l0.33,0.22l11.6,8.239L40.88,35.2l-3.83,0.01v10.48h7.62V13.12H29.7l0.01,10.49h-1.19l0,0l0,0
	 M41.69,23.65H32.34v-5.29h9.351V23.65z"/>
<rect x="33.53" y="19.55" fill="#F4FFD2" width="6.96" height="2.91"/>
<line fill="none" x1="24.18" y1="11.93" x2="24.17" y2="11.93"/>
<path fill="#F4FFD2" d="M38.571,33.832l-9.624-6.769L18.945,33.8h3.666v11.736h13.039v-11.67L38.571,33.832z M32.49,44.16h-7.7
	v-7.97h7.7V44.16z"/>
<g>
	<polygon fill-rule="evenodd" clip-rule="evenodd" fill="#3AAA15" points="35.649,47.07 35.649,33.866 36.423,33.84 38.571,33.832 
		28.947,27.063 18.945,33.8 22.61,33.8 22.61,45.51 13.58,45.51 13.58,43.92 21.02,43.92 21.02,35.4 16.899,35.4 16.911,33.173 
		28.96,25.15 29.401,25.444 41.091,33.747 41.078,35.399 37.25,35.409 37.25,45.49 44.47,45.49 44.47,13.32 29.9,13.32 29.91,23.81 
		28.319,23.81 28.31,11.73 46.061,11.74 46.061,47.08 	"/>
	<polygon fill-rule="evenodd" clip-rule="evenodd" fill="#3AAA15" points="45.86,11.94 45.86,46.88 35.85,46.87 35.85,34.06 
		36.43,34.04 39.2,34.03 28.95,26.82 18.29,34 22.41,34 22.41,45.31 13.78,45.31 13.78,44.12 21.22,44.12 21.22,35.2 17.1,35.2 
		17.11,33.28 28.63,25.61 28.96,25.39 29.29,25.61 40.89,33.85 40.88,35.2 37.05,35.21 37.05,45.69 44.67,45.69 44.67,13.12 
		29.7,13.12 29.71,23.61 28.52,23.61 28.51,12.52 28.51,11.93 29.11,11.93 45.26,11.94 	"/>
	<path fill-rule="evenodd" clip-rule="evenodd" fill="#3AAA15" d="M24.59,44.36v-8.37h8.101v8.37H24.59z M31.09,42.77V37.58H26.2
		v5.189H31.09z"/>
	<path fill-rule="evenodd" clip-rule="evenodd" fill="#3AAA15" d="M24.79,36.19v7.97h7.7v-7.97H24.79z M31.29,42.97H26v-5.59h5.29
		V42.97z"/>
	<path fill-rule="evenodd" clip-rule="evenodd" fill="#3AAA15" d="M32.14,23.85v-5.69h9.751v5.69H32.14z M40.29,22.26v-2.51h-6.56
		v2.51H40.29z"/>
	<path fill-rule="evenodd" clip-rule="evenodd" fill="#3AAA15" d="M32.34,18.36v5.29h9.351v-5.29H32.34z M40.49,22.46h-6.96v-2.91
		h6.96V22.46z"/>
	<path fill-rule="evenodd" clip-rule="evenodd" fill="#3AAA15" d="M13.56,25.14c-1.887,0.905-3.651,1.363-5.248,1.363
		c-0.417,0-0.826-0.032-1.214-0.096c-1.367-0.226-2.562-0.845-3.453-1.79c-0.831-0.882-1.392-2.044-1.622-3.363
		C1.681,19.268,2.108,17.1,3.227,15.15c0.633-1.115,1.786-3.046,3.122-5.283l0.059-0.099c2.42-4.073,5.432-9.141,7.017-12.133
		l0.622-1.203l0.65,1.191c0.984,1.799,3.238,4.987,5.418,8.07l0.286,0.406c1.447,2.058,2.816,4.003,3.879,5.629l0.07,0.093
		c0.967,1.515,1.497,2.458,1.719,3.058c0.812,2.222,0.938,4.41,0.364,6.326c-0.447,1.483-1.29,2.751-2.437,3.669
		c-1.164,0.921-2.592,1.462-4.132,1.563c-0.172,0.012-0.345,0.017-0.52,0.017c-1.438,0-2.894-0.362-4.333-1.079l-0.02,19.878
		l-1.411,0.028L13.56,25.14z M14.089-0.56c-1.685,3.069-4.352,7.543-6.507,11.163L7.346,11c-1.143,1.926-2.152,3.625-2.862,4.87
		c-0.954,1.652-1.322,3.476-1.037,5.137c0.175,1.029,0.607,1.938,1.249,2.627c0.689,0.72,1.577,1.174,2.636,1.349
		c0.311,0.05,0.641,0.075,0.978,0.075c1.545,0,3.311-0.518,5.249-1.538v-2.725l-6.123-4.97l0.855-1.173l5.268,4.24v-4.121
		L10.248,11.9l0.941-1.093l2.36,2.045V9.408L15,9.422v3.319l2.244-1.882l0.938,1.104L15,14.633v4.052l5.534-4.575l0.939,1.104
		L15,20.564l0.01,3.172c1.449,0.847,2.916,1.276,4.361,1.276c0.137,0,0.273-0.004,0.408-0.012c1.239-0.085,2.383-0.52,3.307-1.257
		c0.928-0.741,1.603-1.761,1.953-2.95c0.485-1.623,0.37-3.495-0.335-5.415c-0.499-1.386-3.154-5.143-5.722-8.777l0.095-0.212
		l-0.164,0.116C17.114,3.961,15.257,1.335,14.089-0.56z"/>
	<path fill-rule="evenodd" clip-rule="evenodd" fill="#3AAA15" d="M25.88,14.95c-0.24-0.65-0.87-1.72-1.7-3.02h-0.01
		c-1.14-1.75-2.68-3.93-4.22-6.12c-2.22-3.14-4.44-6.28-5.43-8.09l-0.47-0.86L13.6-2.27C12,0.75,8.98,5.83,6.52,9.97
		c-1.32,2.21-2.49,4.17-3.12,5.28c-1.13,1.97-1.5,4.11-1.18,5.97c0.22,1.26,0.75,2.39,1.57,3.26c0.83,0.88,1.95,1.5,3.34,1.73
		c1.78,0.29,4.01-0.08,6.63-1.39l0.02,19.3v0.96l1.01-0.021V44.12l0.02-19.07c1.75,0.931,3.48,1.29,5.04,1.19
		c1.53-0.101,2.91-0.641,4.02-1.52c1.1-0.88,1.93-2.11,2.37-3.57C26.77,19.38,26.72,17.25,25.88,14.95z M25.23,20.85
		c-0.37,1.26-1.08,2.3-2.02,3.05s-2.11,1.21-3.42,1.3c-1.53,0.09-3.24-0.31-4.98-1.35l-0.01-3.38l6.39-5.28l-0.68-0.8l-5.71,4.72
		v-4.57l3.1-2.6l-0.68-0.8l-2.42,2.03V9.62l-1.05-0.01v3.68l-2.54-2.2l-0.68,0.79l3.23,2.8v4.63l-5.43-4.37l-0.62,0.85l6.05,4.91
		v2.94c-2.62,1.4-4.78,1.81-6.46,1.54c-1.15-0.19-2.07-0.7-2.75-1.41c-0.68-0.73-1.12-1.67-1.3-2.73c-0.28-1.63,0.05-3.52,1.06-5.27
		c0.76-1.33,1.86-3.18,3.1-5.27c2.27-3.81,5.01-8.41,6.67-11.46c1.15,1.91,3.08,4.64,5.01,7.37c2.65,3.75,5.29,7.48,5.8,8.9
		C25.65,17.38,25.7,19.28,25.23,20.85z"/>
</g>
<line fill="#F4FFD2" x1="35.649" y1="33.866" x2="38.571" y2="33.832"/>
</svg>
