<?xml version="1.0" encoding="utf-8"?>
<!-- Generator: Adobe Illustrator 16.0.0, SVG Export Plug-In . SVG Version: 6.00 Build 0)  -->
<!DOCTYPE svg PUBLIC "-//W3C//DTD SVG 1.1//EN" "http://www.w3.org/Graphics/SVG/1.1/DTD/svg11.dtd">
<svg version="1.1" id="Layer_1" xmlns="http://www.w3.org/2000/svg" xmlns:xlink="http://www.w3.org/1999/xlink" x="0px" y="0px"
	 width="569px" height="152px" viewBox="0 0 569 152" enable-background="new 0 0 569 152" xml:space="preserve">
<g id="Layer_1_1_" display="none">
	<g display="inline">
		<path fill="#3AAA15" d="M317.36,52.64c-1.342-3.66-7.67-12.62-14.021-21.61c-5.239-7.41-10.489-14.84-12.84-19.13l-1.101-2.02
			l-1.08,2.04c-3.759,7.14-10.909,19.16-16.729,28.94c-3.12,5.24-5.87,9.85-7.37,12.48c-2.67,4.67-3.55,9.73-2.79,14.13
			c0.51,2.959,1.76,5.64,3.71,7.709c1.96,2.08,4.61,3.551,7.9,4.08c4.21,0.681,9.47-0.188,15.67-3.279l0.05,47.89l2.38-0.03
			l0.051-47.311c4.149,2.189,8.221,3.041,11.92,2.811c3.621-0.24,6.881-1.51,9.501-3.6c2.608-2.09,4.568-4.98,5.6-8.44
			C319.46,63.1,319.34,58.08,317.36,52.64z M315.84,66.59c-0.88,2.97-2.56,5.44-4.78,7.21c-2.22,1.78-5.089,2.87-8.198,3.07
			C299.26,77.1,295,76.14,291,73.69V65.7l15.18-12.49l-1.619-1.9L291,62.47V51.66l7.41-6.13l-1.62-1.9l-5.79,4.8v-8.4l-2.4-0.01
			l0.061,8.7l-5.99-5.21l-1.61,1.87L288.7,52l0.01,10.96l-12.83-10.33l-1.32,1.99L289,66.23v6.97c-6,3.3-11.46,4.26-15.42,3.62
			c-2.71-0.44-4.97-1.641-6.56-3.34c-1.61-1.711-2.68-3.94-3.11-6.431c-0.66-3.86,0.1-8.33,2.48-12.48
			c1.79-3.13,4.38-7.5,7.33-12.45c5.35-9,11.809-19.88,15.74-27.09c2.72,4.51,7.29,10.97,11.851,17.42
			c6.261,8.86,12.499,17.69,13.721,21.04C316.82,58.39,316.94,62.88,315.84,66.59z"/>
		<path fill="none" d="M315.84,66.59c-0.88,2.97-2.56,5.44-4.78,7.21c-2.22,1.78-5.089,2.87-8.198,3.07
			C299.26,77.1,295,76.14,291,73.69V65.7l15.18-12.49l-1.619-1.9L291,62.47V51.66l7.41-6.13l-1.62-1.9l-5.79,4.8v-8.4l-2.4-0.01
			l0.061,8.7l-5.99-5.21l-1.61,1.87L288.7,52l0.01,10.96l-12.83-10.33l-1.32,1.99L289,66.23v6.97c-6,3.3-11.46,4.26-15.42,3.62
			c-2.71-0.44-4.97-1.641-6.56-3.34c-1.61-1.711-2.68-3.94-3.11-6.431c-0.66-3.86,0.1-8.33,2.48-12.48
			c1.79-3.13,4.38-7.5,7.33-12.45c5.35-9,11.809-19.88,15.74-27.09c2.72,4.51,7.29,10.97,11.851,17.42
			c6.261,8.86,12.499,17.69,13.721,21.04C316.82,58.39,316.94,62.88,315.84,66.59z"/>
	</g>
</g>
<g id="Layer_2">
	<g>
		<path fill="none" stroke="#33EB74" stroke-width="6" stroke-miterlimit="10" d="M496.221,60.765"/>
		<path fill="none" stroke="#33EB74" stroke-width="6" stroke-miterlimit="10" d="M329.161,103.934"/>
		<polyline fill="none" stroke="#33EB74" stroke-width="6" stroke-miterlimit="10" points="498.39,69.025 478.239,62.197 
			481.743,41.208 		"/>
		<polyline fill="none" stroke="#33EB74" stroke-width="6" stroke-miterlimit="10" points="455.301,35.887 451.188,73.532 
			485.39,89.785 		"/>
		<path fill="none" stroke="#33EB74" stroke-width="6" stroke-miterlimit="10" d="M549.525,15.712
			c-0.517,1.063-33.662,69.022-50.239,88.39c-16.698,19.521-26.88,25.189-38.802,24.905c-11.924-0.284-23.998-7.536-28.729-22.405
			c-4.101-12.918-2.257-24.519-1.7-27.341c0.078-0.42,0.139-0.651,0.139-0.651c-1.02-1.854-12.459-12.311-15.669-20.714
			c-2.48-6.468-9.695-20.115,5.446-32.307c9.404-7.564,25.051-8.209,39.598-6.999C479.486,20.256,535.204,23.992,549.525,15.712z"/>
		<path fill="none" stroke="#33EB74" stroke-width="6" stroke-miterlimit="10" d="M499.457,48.356"/>
		<path fill="none" stroke="#33EB74" stroke-width="6" stroke-miterlimit="10" d="M496.221,60.765"/>
		<path fill="none" stroke="#33EB74" stroke-width="6" stroke-miterlimit="10" d="M329.161,103.934"/>
		<polyline fill="none" stroke="#33EB74" stroke-width="6" stroke-miterlimit="10" points="498.39,69.025 478.239,62.197 
			481.743,41.208 		"/>
		<polyline fill="none" stroke="#33EB74" stroke-width="6" stroke-miterlimit="10" points="455.301,35.887 451.188,73.532 
			485.39,89.785 		"/>
		<path fill="none" stroke="#33EB74" stroke-width="6" stroke-miterlimit="10" d="M377.319,88.262
			c43.229-2.627,95.131-19.522,122.138-39.906"/>
	</g>
	<g>
		<path fill="none" stroke="#33EB74" stroke-width="6" stroke-miterlimit="10" d="M343.339,84.695"/>
		<path fill="none" stroke="#33EB74" stroke-width="6" stroke-miterlimit="10" d="M181.169,25.762"/>
		<polyline fill="none" stroke="#33EB74" stroke-width="6" stroke-miterlimit="10" points="305.159,94.854 300.975,57.216 
			335.146,40.898 		"/>
		<path fill="none" stroke="#33EB74" stroke-width="6" stroke-miterlimit="10" d="M392.094,125.637
			c-0.411-1.105-26.911-71.922-41.562-92.786c-14.757-21.026-24.352-27.643-36.245-28.499c-11.895-0.857-24.607,5.207-30.737,19.556
			c-5.317,12.469-4.589,24.19-4.305,27.054c0.037,0.427,0.074,0.662,0.074,0.662c-1.191,1.748-13.578,11.063-17.577,19.122
			c-3.088,6.202-11.573,19.096,2.334,32.68c8.639,8.428,24.152,10.565,38.748,10.75C322.81,114.421,378.63,116.027,392.094,125.637z
			"/>
		<path fill="none" stroke="#33EB74" stroke-width="6" stroke-miterlimit="10" d="M345.374,97.357"/>
		<path fill="none" stroke="#33EB74" stroke-width="6" stroke-miterlimit="10" d="M343.339,84.695"/>
		<path fill="none" stroke="#33EB74" stroke-width="6" stroke-miterlimit="10" d="M181.169,25.762"/>
		<polyline fill="none" stroke="#33EB74" stroke-width="6" stroke-miterlimit="10" points="343.297,60.56 323.153,67.407 
			326.674,88.393 		"/>
		<path fill="none" stroke="#33EB74" stroke-width="6" stroke-miterlimit="10" d="M225.057,45.412
			c43.381-3.286,95.592,16.123,115.9,34.75"/>
	</g>
	<g>
		<path fill="none" stroke="#33EB74" stroke-width="6" stroke-miterlimit="10" d="M183.809,66.161"/>
		<path fill="none" stroke="#33EB74" stroke-width="6" stroke-miterlimit="10" d="M16.546,108.534"/>
		<polyline fill="none" stroke="#33EB74" stroke-width="6" stroke-miterlimit="10" points="185.938,74.433 165.821,67.508 
			169.424,46.536 		"/>
		<polyline fill="none" stroke="#33EB74" stroke-width="6" stroke-miterlimit="10" points="143.008,41.09 138.715,78.715 
			172.839,95.131 		"/>
		<path fill="none" stroke="#33EB74" stroke-width="6" stroke-miterlimit="10" d="M237.327,21.363
			c-0.521,1.061-33.99,68.86-50.66,88.151c-16.79,19.439-27,25.061-38.92,24.719c-11.92-0.34-23.96-7.648-28.62-22.539
			c-4.04-12.939-2.14-24.529-1.57-27.351c0.08-0.42,0.141-0.649,0.141-0.649c-1.01-1.859-12.4-12.37-15.57-20.791
			c-2.45-6.479-9.6-20.16,5.601-32.279c9.439-7.521,25.09-8.091,39.63-6.811C167.268,25.573,222.967,29.573,237.327,21.363z"/>
		<path fill="none" stroke="#33EB74" stroke-width="6" stroke-miterlimit="10" d="M10.488,84.623
			c39.032,21.865,135.896-0.426,176.614-30.854"/>
		<path fill="none" stroke="#33EB74" stroke-width="6" stroke-miterlimit="10" d="M183.809,66.161"/>
		<path fill="none" stroke="#33EB74" stroke-width="6" stroke-miterlimit="10" d="M16.546,108.534"/>
		<polyline fill="none" stroke="#33EB74" stroke-width="6" stroke-miterlimit="10" points="185.938,74.433 165.821,67.508 
			169.424,46.536 		"/>
		<polyline fill="none" stroke="#33EB74" stroke-width="6" stroke-miterlimit="10" points="143.008,41.09 138.715,78.715 
			172.839,95.131 		"/>
		<path fill="none" stroke="#33EB74" stroke-width="6" stroke-miterlimit="10" d="M10.488,84.623
			c39.032,21.865,135.896-0.426,176.614-30.854"/>
	</g>
</g>
</svg>
